<svg xmlns="http://www.w3.org/2000/svg" height="1em" fill="currentColor" viewBox="0 0 512 512">
  <path d="M 36.57 0 L 0 0 L 36.57 0 L 0 0 L 0 36.57 L 0 36.57 L 0 475.43 L 0 475.43 L 0 512 L 0 512 L 36.57 512 L 512 512 L 512 475.43 L 512 475.43 L 512 146.29 L 512 146.29 L 512 131.43 L 512 131.43 L 501.71 120 L 501.71 120 L 392 10.29 L 392 10.29 L 380.57 0 L 380.57 0 L 365.71 0 L 36.57 0 Z M 73.14 73.14 L 365.71 73.14 L 73.14 73.14 L 365.71 73.14 L 365.71 219.43 L 365.71 219.43 L 73.14 219.43 L 73.14 219.43 L 73.14 73.14 L 73.14 73.14 Z M 256 292.57 Q 297.14 293.71 318.86 329.14 Q 339.43 365.71 318.86 402.29 Q 297.14 437.71 256 438.86 Q 214.86 437.71 193.14 402.29 Q 172.57 365.71 193.14 329.14 Q 214.86 293.71 256 292.57 L 256 292.57 Z" />
</svg>