<svg xmlns="http://www.w3.org/2000/svg" height="1em" fill="currentColor" viewBox="0 0 512 512">
  <path d="M 377.32 63.38 L 368.40 99.03 L 377.32 63.38 L 368.40 99.03 L 287.20 180.24 L 287.20 180.24 Q 252.53 158.45 216.88 158.45 Q 181.23 158.45 157.46 182.22 Q 140.63 199.06 135.68 220.84 Q 132.70 233.72 122.80 242.63 Q 112.90 251.54 100.02 252.53 Q 61.40 254.51 33.67 281.25 Q 0 315.91 5.94 366.42 Q 10.89 416.93 52.49 460.50 Q 95.07 501.11 145.58 506.06 Q 196.09 512 230.75 478.33 Q 257.49 450.60 259.47 411.98 Q 260.46 399.10 269.37 389.20 Q 278.28 379.30 291.16 376.32 Q 312.94 371.37 329.78 354.54 Q 353.55 330.77 353.55 295.12 Q 353.55 259.47 331.76 224.80 L 412.97 143.60 L 412.97 143.60 L 448.62 134.68 L 448.62 134.68 L 512 63.38 L 512 63.38 L 448.62 0 L 448.62 0 L 377.32 63.38 L 377.32 63.38 Z M 210.94 253.52 Q 237.68 254.51 252.53 277.29 Q 264.42 301.06 252.53 324.83 Q 237.68 347.61 210.94 348.60 Q 184.20 347.61 169.35 324.83 Q 157.46 301.06 169.35 277.29 Q 184.20 254.51 210.94 253.52 L 210.94 253.52 Z" />
</svg>