<svg id="r0" xmlns="http://www.w3.org/2000/svg" height="1em" fill="currentColor" viewBox="0 0 512 512">
  <path class="color0" d="M 433.39 41.32 L 433.39 0 L 433.39 41.32 L 433.39 0 L 393.07 10.08 L 393.07 10.08 L 264.06 42.33 L 264.06 42.33 L 239.87 48.38 L 239.87 48.38 L 239.87 73.57 L 239.87 73.57 L 239.87 138.08 L 239.87 138.08 L 239.87 358.80 L 239.87 358.80 Q 217.70 350.74 191.50 350.74 Q 143.12 351.75 111.87 373.92 Q 79.62 397.10 78.61 431.37 Q 79.62 465.64 111.87 488.82 Q 143.12 510.99 191.50 512 Q 239.87 510.99 271.12 488.82 Q 303.37 465.64 304.38 431.37 L 304.38 163.28 L 304.38 163.28 L 409.20 137.07 L 409.20 137.07 L 433.39 131.02 L 433.39 131.02 L 433.39 105.83 L 433.39 105.83 L 433.39 41.32 L 433.39 41.32 Z" />
</svg>