<svg xmlns="http://www.w3.org/2000/svg" height="1em" fill="currentColor" viewBox="0 0 512 512">
  <path d="M 71.74 157.24 Q 107.12 156.25 125.79 125.79 Q 143.48 94.34 125.79 62.89 Q 107.12 32.43 71.74 31.45 Q 36.36 32.43 17.69 62.89 Q 0 94.34 17.69 125.79 Q 36.36 156.25 71.74 157.24 L 71.74 157.24 Z M 197.53 62.89 L 166.08 62.89 L 197.53 62.89 L 166.08 62.89 L 166.08 125.79 L 166.08 125.79 L 197.53 125.79 L 512 125.79 L 512 62.89 L 512 62.89 L 480.55 62.89 L 197.53 62.89 Z M 197.53 220.13 L 166.08 220.13 L 197.53 220.13 L 166.08 220.13 L 166.08 283.02 L 166.08 283.02 L 197.53 283.02 L 512 283.02 L 512 220.13 L 512 220.13 L 480.55 220.13 L 197.53 220.13 Z M 197.53 377.37 L 166.08 377.37 L 197.53 377.37 L 166.08 377.37 L 166.08 440.26 L 166.08 440.26 L 197.53 440.26 L 512 440.26 L 512 377.37 L 512 377.37 L 480.55 377.37 L 197.53 377.37 Z M 48.15 408.81 Q 50.12 387.19 71.74 385.23 Q 93.36 387.19 95.32 408.81 Q 93.36 430.43 71.74 432.40 Q 50.12 430.43 48.15 408.81 L 48.15 408.81 Z M 134.63 408.81 Q 133.65 373.44 103.19 354.76 Q 71.74 337.07 40.29 354.76 Q 9.83 373.44 8.84 408.81 Q 9.83 444.19 40.29 462.86 Q 71.74 480.55 103.19 462.86 Q 133.65 444.19 134.63 408.81 L 134.63 408.81 Z M 71.74 227.99 Q 93.36 229.96 95.32 251.58 Q 93.36 273.20 71.74 275.16 Q 50.12 273.20 48.15 251.58 Q 50.12 229.96 71.74 227.99 L 71.74 227.99 Z M 71.74 314.47 Q 107.12 313.49 125.79 283.02 Q 143.48 251.58 125.79 220.13 Q 107.12 189.67 71.74 188.68 Q 36.36 189.67 17.69 220.13 Q 0 251.58 17.69 283.02 Q 36.36 313.49 71.74 314.47 L 71.74 314.47 Z" />
</svg>