<svg xmlns="http://www.w3.org/2000/svg" height="1em" fill="currentColor" viewBox="0 0 512 512">
  <path d="M 196.92 0 L 196.92 118.15 L 196.92 0 L 196.92 118.15 L 315.08 118.15 L 315.08 118.15 L 315.08 0 L 315.08 0 L 196.92 0 L 196.92 0 Z M 196.92 393.85 L 196.92 512 L 196.92 393.85 L 196.92 512 L 315.08 512 L 315.08 512 L 315.08 393.85 L 315.08 393.85 L 196.92 393.85 L 196.92 393.85 Z M 472.62 295.38 L 512 295.38 L 472.62 295.38 L 512 295.38 L 512 216.62 L 512 216.62 L 472.62 216.62 L 0 216.62 L 0 295.38 L 0 295.38 L 39.38 295.38 L 472.62 295.38 Z" />
</svg>