<svg xmlns="http://www.w3.org/2000/svg" height="1em" fill="currentColor" viewBox="0 0 512 512">
  <path d="M 0 165.65 L 0 346.35 L 0 165.65 L 0 346.35 L 120.47 346.35 L 120.47 346.35 L 256 466.82 L 256 466.82 L 301.18 466.82 L 301.18 466.82 L 301.18 45.18 L 301.18 45.18 L 256 45.18 L 256 45.18 L 120.47 165.65 L 120.47 165.65 L 0 165.65 L 0 165.65 Z M 385.88 328.47 Q 419.76 302.12 421.65 256 Q 419.76 209.88 385.88 183.53 L 358.59 220.24 L 358.59 220.24 Q 375.53 233.41 376.47 256 Q 375.53 278.59 358.59 291.76 L 385.88 328.47 L 385.88 328.47 Z M 439.53 400.94 Q 473.41 375.53 492.24 337.88 L 492.24 337.88 L 492.24 337.88 Q 512 301.18 512 256 Q 512 210.82 492.24 174.12 Q 473.41 136.47 439.53 111.06 L 412.24 147.76 L 412.24 147.76 Q 437.65 166.59 451.76 194.82 Q 466.82 222.12 466.82 256 Q 466.82 289.88 451.76 317.18 Q 437.65 345.41 412.24 364.24 L 439.53 400.94 L 439.53 400.94 Z" />
</svg>